/* XPM */
static char *close[] = {
/* width height num_colors chars_per_pixel */
"    13    13       28            1",
/* colors */
". c #000000",
"# c #506060",
"a c #506458",
"b c #605858",
"c c #606060",
"d c #606460",
"e c #989898",
"f c #989c98",
"g c #98a4a0",
"h c #a09ca0",
"i c #a898a0",
"j c #a898a8",
"k c #c0c8c0",
"l c #c0d0c8",
"m c #c8c4c8",
"n c #c8c8c8",
"o c #d0ccd0",
"p c #d0d4d0",
"q c #d8d8d8",
"r c #d8dcd8",
"s c #e0e4e0",
"t c #e0ece0",
"u c #e8ece8",
"v c #e8f4e8",
"w c #f0ecf0",
"x c #f0fcf8",
"y c #f8ecf0",
"z c #f8fcf8",
/* pixels */
"uhehfhejehehu",
"ixzzzzzzzzzce",
"fzknorqsuuuah",
"hzmklprsuuuce",
"ezkm.rqs.uyai",
"jzknp.r.uuvcf",
"fzmkmr.suuyai",
"hzmkp.r.uuude",
"ezkm.qrs.uw#h",
"hzknpprsuuvde",
"ezmknqrsuuw#h",
"iacddb#dcddbe",
"tjfegejfefegu"
};
