/* XPM */
static char * five_led [] = {
"14 25 2 1",
"   m black  c #ac00ab00a900",
".  m black  c #f60022001700",
"              ",
"  ..........  ",
" . ........   ",
" .. ......    ",
" ... ....     ",
" ....         ",
" ....         ",
" ....         ",
" ....         ",
" ...          ",
" .. ......    ",
" . ........   ",
"  ..........  ",
"   ........ . ",
"    ...... .. ",
"          ... ",
"         .... ",
"         .... ",
"         .... ",
"         .... ",
"     .... ... ",
"    ...... .. ",
"   ........ . ",
"  ..........  ",
"              "};
