/* XPM */
static char * stop_back_xpm[] = {
"15 15 5 1",
" 	c None",
".	c #949594",
"+	c #FF0000",
"@	c #8E8E8E",
"#	c #FFFFFF",
"      ..       ",
"    .++++.     ",
"  .++++++++.   ",
" .++++++++++.  ",
" .++++++++++.  ",
".++++++++++++. ",
".++++++++++++. ",
".++++++++++++@#",
".++++++++++++@#",
" .++++++++++@# ",
" .++++++++++@# ",
"  .++++++++@#  ",
"    .++++@##   ",
"      .###     ",
"               "};
