/* XPM */
static char *volume1[] = {
/* width height num_colors chars_per_pixel */
"    18    17        2            1",
/* colors */
". c #000000",
"# c #c8ccc8",
/* pixels */
"##################",
"###########.######",
"############.#####",
"#########..##.####",
"#######.###.#.####",
"######..#.#.##.###",
"#####...#.##.#.###",
"###.....##.#.#.###",
"###......#.#.##.##",
"###.....##.#.#.###",
"#####...#.##.#.###",
"######..#.#.##.###",
"#######.###.#.####",
"#########..##.####",
"############.#####",
"###########.######",
"##################"
};
